HIERARCHY
ROOT Hips
{
	OFFSET	0.00	0.00	0.00
	CHANNELS 6 Xposition Yposition Zposition Zrotation Xrotation Yrotation
	JOINT LeftUpLeg
	{
		OFFSET	 0.126116	-0.014019	-0.065224
		CHANNELS 3 Zrotation Xrotation Yrotation
		JOINT LeftLeg
		{
			OFFSET	 0.000000	 0.000000	 0.569914
			CHANNELS 3 Zrotation Xrotation Yrotation
			JOINT LeftFoot
			{
				OFFSET	 0.000000	 0.000000	 0.544423
				CHANNELS 3 Zrotation Xrotation Yrotation
				JOINT LeftToeBase
				{
					OFFSET	 0.000000	 0.000000	 0.207117
					CHANNELS 3 Zrotation Xrotation Yrotation
					End Site
					{
						OFFSET	 0.000000	 0.000000	 0.207117
					}
				}
			}
		}
	}
	JOINT RightUpLeg
	{
		OFFSET	-0.124023	-0.008373	-0.065224
		CHANNELS 3 Zrotation Xrotation Yrotation
		JOINT RightLeg
		{
			OFFSET	 0.000000	 0.000000	 0.570047
			CHANNELS 3 Zrotation Xrotation Yrotation
			JOINT RightFoot
			{
				OFFSET	 0.000000	 0.000000	 0.544354
				CHANNELS 3 Zrotation Xrotation Yrotation
				JOINT RightToeBase
				{
					OFFSET	 0.000000	 0.000000	 0.207540
					CHANNELS 3 Zrotation Xrotation Yrotation
					End Site
					{
						OFFSET	 0.000000	 0.000000	 0.207540
					}
				}
			}
		}
	}
	JOINT Spine
	{
		OFFSET	 0.000184	-0.007763	 0.117403
		CHANNELS 3 Zrotation Xrotation Yrotation
		JOINT Spine1
		{
			OFFSET	 0.000000	 0.000000	 0.137269
			CHANNELS 3 Zrotation Xrotation Yrotation
			JOINT Spine2
			{
				OFFSET	 0.000000	 0.000000	 0.156879
				CHANNELS 3 Zrotation Xrotation Yrotation
				JOINT LeftShoulder
				{
					OFFSET	 0.080501	-0.002496	 0.160144
					CHANNELS 3 Zrotation Xrotation Yrotation
					JOINT LeftArm
					{
						OFFSET	 0.000000	 0.000000	 0.164363
						CHANNELS 3 Zrotation Xrotation Yrotation
						JOINT LeftForeArm
						{
							OFFSET	 0.000000	 0.000000	 0.364576
							CHANNELS 3 Zrotation Xrotation Yrotation
							JOINT LeftHand
							{
								OFFSET	 0.000000	 0.000000	 0.360812
								CHANNELS 3 Zrotation Xrotation Yrotation
								JOINT LeftHandIndex1
								{
									OFFSET	 0.000000	 0.000000	 0.086006
									CHANNELS 3 Zrotation Xrotation Yrotation
									JOINT LeftHandIndex2
									{
										OFFSET	 0.000000	 0.000000	 0.047236
										CHANNELS 3 Zrotation Xrotation Yrotation
										JOINT LeftHandIndex3
										{
											OFFSET	-0.004284	-0.000551	 0.038166
											CHANNELS 3 Zrotation Xrotation Yrotation
											End Site
											{
												OFFSET	-0.004284	-0.000551	 0.038166
											}
										}
									}
								}
							}
						}
					}
				}
				JOINT Neck
				{
					OFFSET	 0.000000	 0.000000	 0.176489
					CHANNELS 3 Zrotation Xrotation Yrotation
					JOINT Head
					{
						OFFSET	 0.000000	-0.001747	 0.077940
						CHANNELS 3 Zrotation Xrotation Yrotation
						End Site
						{
							OFFSET	 0.000000	-0.001747	 0.077940
						}
					}
				}
				JOINT RightShoulder
				{
					OFFSET	-0.080363	 0.000306	 0.159706
					CHANNELS 3 Zrotation Xrotation Yrotation
					JOINT RightArm
					{
						OFFSET	 0.000000	 0.000000	 0.164196
						CHANNELS 3 Zrotation Xrotation Yrotation
						JOINT RightForeArm
						{
							OFFSET	 0.000000	 0.000000	 0.365611
							CHANNELS 3 Zrotation Xrotation Yrotation
							JOINT RightHand
							{
								OFFSET	 0.000000	 0.000000	 0.360648
								CHANNELS 3 Zrotation Xrotation Yrotation
								JOINT RightHandIndex1
								{
									OFFSET	 0.000000	 0.000000	 0.069977
									CHANNELS 3 Zrotation Xrotation Yrotation
									JOINT RightHandIndex2
									{
										OFFSET	 0.000000	 0.000000	 0.052305
										CHANNELS 3 Zrotation Xrotation Yrotation
										JOINT RightHandIndex3
										{
											OFFSET	 0.009002	-0.000782	 0.042196
											CHANNELS 3 Zrotation Xrotation Yrotation
											End Site
											{
												OFFSET	 0.009002	-0.000782	 0.042196
											}
										}
									}
								}
							}
						}
					}
				}
			}
		}
	}
}
MOTION
Frames:    8
Frame Time: 0.03333334
 0.000459	 0.044269	 1.275037	-0.088211	 2.374278	 0.687027	 13.090480	-6.205525	 177.136200	 2.297301	-13.067620	 0.614035	-0.714630	 70.603100	 0.582533	-2.385833	 28.452750	 0.000004	-5.573432	-5.230518	-177.741100	-0.808253	-10.772080	 0.812290	 5.408620	 69.223050	 0.902375	 2.384659	 28.388700	-0.000001	-1.993843	 7.090800	-0.147991	 0.872909	-4.672130	 0.279615	-2.140791	 8.304315	 0.480266	-91.191090	 69.937110	-177.877500	-7.805991	 1.276980	-27.083130	 23.923400	-0.065475	-1.531048	-10.942480	-23.675830	-4.876144	-2.027600	 6.559038	 9.033609	-5.188889	 0.308190	 3.541030	-5.234859	 0.342567	 0.430617	 4.325603	 17.397140	-6.563612	-7.305555	-13.069220	 1.840998	 89.044290	 68.888000	 177.426700	 9.490885	 9.744431	 6.455753	-23.526230	-9.242920	 30.663450	 8.546990	-23.758560	 7.171618	 1.803333	 3.979147	-15.098590	 4.898592	 3.004813	-9.310344	 5.224449	 0.395017	 2.014677
 0.000250	 0.048161	 1.274425	-0.064968	 2.820191	 0.761485	 13.229540	-7.056047	 177.178400	 2.200294	-13.343750	 0.604347	-0.100510	 70.443380	 0.011630	-2.385833	 28.452750	 0.000004	-5.811297	-5.952759	-177.897000	-0.788765	-10.846250	 0.821501	 4.936966	 69.050500	 1.405860	 2.384659	 28.388700	-0.000001	-5.216725	 7.604303	-0.182574	 0.828696	-5.395179	 0.306783	-2.075063	 9.903584	 0.530209	-91.068920	 69.109500	-177.599400	-6.674325	 2.086285	-29.615320	 21.537120	 0.066355	-2.494922	-11.002250	-25.523390	-5.674862	-2.027600	 6.559038	 9.033609	-5.188889	 0.308190	 3.541030	-5.234859	 0.342567	 0.430617	 4.582536	 19.559190	-7.250096	-7.219188	-14.521360	 1.754694	 88.877410	 67.750470	 177.093100	 8.289948	 11.293500	 7.737947	-21.818360	-8.282701	 32.279480	 8.448508	-25.177010	 7.342687	 1.803333	 3.979147	-15.098590	 4.898592	 3.004813	-9.310344	 5.224449	 0.395017	 2.014677
-0.000039	 0.052061	 1.273613	-0.028807	 3.273021	 0.829263	 13.315140	-8.012077	 177.227500	 2.168682	-13.825910	 0.618192	 0.453066	 70.437310	-0.561991	-2.385833	 28.452750	 0.000004	-6.028047	-6.815821	-178.067900	-0.775175	-11.200200	 0.850621	 4.492205	 69.017830	 1.894619	 2.384659	 28.388700	-0.000001	-7.764014	 8.017341	-0.206556	 0.812111	-5.740388	 0.319894	-2.084686	 11.004970	 0.577064	-90.982700	 68.525300	-177.419200	-5.736658	 3.050454	-31.910190	 19.549220	 0.225992	-3.273613	-11.237810	-27.122280	-6.512092	-2.027600	 6.559038	 9.033609	-5.188889	 0.308190	 3.541030	-5.234859	 0.342567	 0.430617	 4.698418	 21.200280	-7.753317	-7.106243	-15.698090	 1.687566	 88.739420	 66.801720	 176.844800	 7.074025	 12.863660	 9.190057	-20.458430	-7.280057	 33.090130	 8.403983	-26.400810	 7.582163	 1.803333	 3.979147	-15.098590	 4.898592	 3.004813	-9.310344	 5.224449	 0.395017	 2.014677
-0.000542	 0.057782	 1.272308	 0.035736	 3.953773	 0.916960	 13.332060	-9.657078	 177.304000	 2.136269	-15.012070	 0.675669	 1.269200	 70.717850	-1.475309	-2.385833	 28.452750	 0.000004	-6.328621	-8.221392	-178.331900	-0.761122	-11.971390	 0.911288	 3.849997	 69.091660	 2.616487	 2.384659	 28.388700	-0.000001	-10.867070	 8.537697	-0.233157	 0.831250	-5.688102	 0.304549	-2.175278	 12.069340	 0.655486	-90.891270	 67.889820	-177.242800	-4.673785	 4.316428	-34.981330	 16.979100	 0.494958	-4.251333	-11.790110	-29.230460	-7.823963	-2.027600	 6.559038	 9.033609	-5.188889	 0.308190	 3.541030	-5.234859	 0.342567	 0.430617	 4.730686	 23.143180	-8.313323	-6.915887	-17.186110	 1.612462	 88.563280	 65.573620	 176.556200	 5.408893	 14.789980	 11.362720	-18.685280	-5.885257	 33.998520	 8.408473	-28.006990	 8.029448	 1.803333	 3.979147	-15.098590	 4.898592	 3.004813	-9.310344	 5.224449	 0.395017	 2.014677
-0.000986	 0.063080	 1.271258	 0.092311	 4.586714	 0.986095	 13.451600	-11.207070	 177.415200	 2.218782	-16.155480	 0.731296	 2.087833	 70.996290	-2.390466	-2.385833	 28.452760	 0.000004	-6.600204	-9.511353	-178.572900	-0.785998	-12.637910	 0.955741	 3.269469	 69.129720	 3.313080	 2.384659	 28.388700	-0.000001	-13.378710	 8.987103	-0.259815	 0.877730	-5.134633	 0.262166	-2.271160	 12.722570	 0.726417	-90.823940	 67.296990	-177.140900	-3.940904	 4.998481	-37.632640	 14.697670	 0.779566	-5.062629	-12.461440	-30.904330	-9.113306	-2.027600	 6.559038	 9.033609	-5.188889	 0.308190	 3.541030	-5.234859	 0.342567	 0.430617	 4.731794	 24.691040	-8.727192	-6.757201	-18.382110	 1.535619	 88.427250	 64.487400	 176.372000	 4.060461	 15.958670	 13.131240	-17.112710	-4.750988	 35.388760	 8.450702	-29.278130	 8.530416	 1.803333	 3.979147	-15.098590	 4.898592	 3.004813	-9.310344	 5.224449	 0.395017	 2.014677
-0.001332	 0.068416	 1.270699	 0.147365	 5.295146	 1.063629	 13.474890	-12.639820	 177.540200	 2.204105	-16.879460	 0.761416	 2.976485	 71.061580	-3.366497	-2.385833	 28.452760	 0.000004	-6.890749	-10.662570	-178.826200	-0.975102	-12.818910	 0.927015	 2.668718	 68.931420	 4.202121	 2.384659	 28.388700	-0.000001	-15.406300	 9.330377	-0.308295	 0.941879	-4.509300	 0.223103	-2.423750	 13.060520	 0.770201	-90.828330	 66.611420	-177.265000	-3.238292	 5.356200	-39.807720	 12.245830	 1.066442	-5.743436	-13.624750	-32.211180	-10.513370	-2.027600	 6.559038	 9.033609	-5.188889	 0.308190	 3.541030	-5.234859	 0.342567	 0.430617	 4.550025	 25.415900	-8.773829	-6.668340	-19.006530	 1.393399	 88.406460	 63.468030	 176.479500	 2.556354	 16.610940	 14.557320	-15.543080	-3.581280	 36.650180	 8.637774	-30.223130	 9.252015	 1.803333	 3.979147	-15.098590	 4.898592	 3.004813	-9.310344	 5.224449	 0.395017	 2.014677
-0.001790	 0.075770	 1.270057	 0.216292	 6.235255	 1.158196	 13.519850	-14.470480	 177.726900	 2.203365	-17.662270	 0.795395	 4.146614	 71.021490	-4.669431	-2.385832	 28.452790	-0.000001	-7.342507	-12.160000	-179.183200	-1.309344	-12.951790	 0.879240	 1.905124	 68.578300	 5.352203	 2.384659	 28.388700	-0.000001	-17.837550	 9.752990	-0.373905	 1.047880	-3.086606	 0.132332	-2.626606	 13.212700	 0.837141	-90.839160	 65.720730	-177.421400	-2.471417	 5.707984	-42.899920	 9.135883	 1.479922	-6.581446	-15.217480	-33.705910	-12.398300	-2.027600	 6.559038	 9.033609	-5.188889	 0.308190	 3.541030	-5.234859	 0.342567	 0.430617	 4.313255	 26.358540	-8.825990	-6.555540	-19.817780	 1.212643	 88.386570	 62.143750	 176.612500	 0.638392	 17.358250	 16.839140	-13.627560	-2.015520	 38.107750	 8.902408	-31.304040	 10.236130	 1.803333	 3.979147	-15.098590	 4.898592	 3.004813	-9.310344	 5.224449	 0.395017	 2.014677
-0.002142	 0.082686	 1.269238	 0.351284	 7.231734	 1.194810	 13.473030	-16.273320	 177.981000	 2.164025	-18.382690	 0.814314	 5.333715	 70.891620	-5.962065	-2.385832	 28.452790	-0.000001	-7.619498	-13.855930	-179.463700	-1.347614	-13.485150	 0.887053	 1.103083	 68.458350	 6.412773	 2.384659	 28.388700	-0.000001	-19.813360	 10.039180	-0.432997	 1.135077	-2.124177	 0.077497	-2.812431	 13.247430	 0.922235	-91.074800	 65.284000	-178.111100	-1.897805	 6.304850	-44.695180	 6.803961	 1.870643	-7.271278	-16.651640	-34.635090	-14.040830	-2.027600	 6.559038	 9.033609	-5.188889	 0.308190	 3.541030	-5.234859	 0.342567	 0.430617	 4.069554	 26.706980	-8.805026	-6.466929	-20.252840	 1.092458	 88.598670	 61.537080	 177.190300	-1.169905	 18.411210	 18.298240	-12.156240	-0.683166	 39.201510	 9.163977	-32.162400	 11.091790	 1.803333	 3.979147	-15.098590	 4.898592	 3.004813	-9.310344	 5.224449	 0.395017	 2.014677
